<svg xmlns="http://www.w3.org/2000/svg" width="173.224" height="29.202" viewBox="0 0 173.224 29.202">
  <g id="组_2592" data-name="组 2592" transform="translate(-410.147 -11.998)">
    <g id="组_7161" data-name="组 7161" transform="translate(-2120.183 -2081.04)">
      <g id="组_7127" data-name="组 7127" transform="translate(2530.33 2093.037)">
        <g id="组_7098" data-name="组 7098" transform="translate(5.594 5.316)">
          <path id="路径_5199" data-name="路径 5199" d="M2718.64,2281.6a9.153,9.153,0,1,1,6.472-2.681A9.092,9.092,0,0,1,2718.64,2281.6Zm0-17.727a8.574,8.574,0,1,0,8.575,8.574A8.583,8.583,0,0,0,2718.64,2263.869Z" transform="translate(-2709.489 -2263.291)" fill="#fff"/>
        </g>
        <g id="组_7099" data-name="组 7099" transform="translate(0 0)">
          <path id="路径_5200" data-name="路径 5200" d="M2545.075,2122.239a14.773,14.773,0,0,1-10.426-4.276,14.542,14.542,0,0,1-3.161-4.641,14.512,14.512,0,0,1,0-11.368,14.547,14.547,0,0,1,3.16-4.641,14.829,14.829,0,0,1,20.853,0,14.546,14.546,0,0,1,3.161,4.641,14.514,14.514,0,0,1,0,11.368,14.546,14.546,0,0,1-3.161,4.641,14.777,14.777,0,0,1-10.427,4.276Zm0-28.8a14.2,14.2,0,1,0,14.342,14.2A14.285,14.285,0,0,0,2545.075,2093.443Z" transform="translate(-2530.33 -2093.037)" fill="#fff"/>
        </g>
        <g id="组_7100" data-name="组 7100" transform="translate(9.298 7.141)">
          <path id="路径_5201" data-name="路径 5201" d="M2832.5,2334.5h-4.384v-8.849H2831v-3.927h4.627v3.738h3.38v8.977h-4.259v-4.363H2832.5Zm-3.135-1.249h1.886v-4.423H2836v4.363h1.761v-6.479h-3.38v-3.738h-2.129v3.927h-2.888Z" transform="translate(-2828.115 -2321.725)" fill="#fff"/>
        </g>
        <g id="组_7126" data-name="组 7126" transform="translate(1.678 1.719)">
          <g id="组_7101" data-name="组 7101" transform="translate(10.344)">
            <path id="路径_5202" data-name="路径 5202" d="M2916,2150.032a.862.862,0,0,0,.092.307.315.315,0,0,0,.309.062v.062l-.4.062-.431.03v-.061c.154,0,.215-.03.246-.093a.511.511,0,0,0,.03-.338l-.154-1.509c-.03-.031-.122-.062-.153-.093a.233.233,0,0,0-.216-.031v-.06l.308-.031.277-.031,1.477,1.416-.153-1.109a.746.746,0,0,0-.093-.339.341.341,0,0,0-.277-.03v-.062l.4-.029.4-.062.031.063c-.125.029-.246.062-.277.121a.546.546,0,0,0-.032.339l.217,1.756h-.063l-1.693-1.664Z" transform="translate(-2915.324 -2148.093)" fill="#fff"/>
          </g>
          <g id="组_7102" data-name="组 7102" transform="translate(8.066 0.893)">
            <path id="路径_5203" data-name="路径 5203" d="M2842.55,2178.8l.061-2.092h.063l1.447,1.477c.092.091.184.154.215.184a.2.2,0,0,0,.184-.03l.031.061-.4.154-.4.153-.031-.03a.24.24,0,0,0,.185-.153c.031-.032-.031-.124-.122-.217l-.277-.276-.8.308v.276c0,.185,0,.307.032.34s.122.029.276-.033v.062l-.308.125-.306.122-.032-.062c.062,0,.093-.06.124-.092a1.343,1.343,0,0,0,.061-.277Zm.186-1.6-.032.986.709-.277-.709-.709Z" transform="translate(-2842.365 -2176.706)" fill="#fff"/>
          </g>
          <g id="组_7103" data-name="组 7103" transform="translate(4.525 1.786)">
            <path id="路径_5204" data-name="路径 5204" d="M2730.4,2207.745a.607.607,0,0,0,.247.246c.061.03.153,0,.277-.091l.03.059-.339.246-.338.217-.03-.031a.313.313,0,0,0,.153-.248c.031-.031-.031-.153-.123-.308l-.892-1.2c-.033,0-.125-.032-.155-.032a1.429,1.429,0,0,0-.216.062l-.03-.029.247-.184.247-.156,1.97.554-.647-.893a.664.664,0,0,0-.277-.245.349.349,0,0,0-.246.092l-.03-.062.338-.245.339-.216.03.029c-.092.093-.185.156-.185.216a.761.761,0,0,0,.155.34l1.047,1.415-.031.032h-.031l-2.308-.648Z" transform="translate(-2728.988 -2205.282)" fill="#fff"/>
          </g>
          <g id="组_7104" data-name="组 7104" transform="translate(3.263 3.663)">
            <path id="路径_5205" data-name="路径 5205" d="M2690.171,2267.152l-1.108-1.048a.4.4,0,0,0-.215-.121c-.032.03-.123.091-.216.184l-.062-.062.369-.369.339-.338.062.031a.531.531,0,0,0-.153.216c0,.063.031.122.124.215l1.107,1.047c.093.093.154.121.185.093a.371.371,0,0,0,.246-.125l.062.032-.371.369-.338.368-.061-.061a.442.442,0,0,0,.155-.245c0-.032-.032-.093-.124-.186Z" transform="translate(-2688.57 -2265.397)" fill="#fff"/>
          </g>
          <g id="组_7105" data-name="组 7105" transform="translate(1.786 4.895)">
            <path id="路径_5206" data-name="路径 5206" d="M2642.976,2307.144l-1.23-.862a1.365,1.365,0,0,0-.247-.092,1.248,1.248,0,0,0-.216.216l-.03-.031.369-.555.678-.953.183.152.217.125-.062.093c-.122-.063-.246-.125-.338-.093a1.726,1.726,0,0,0-.248.306l-.245.339c0,.031-.031.062-.031.092s.031.031.063.063l.615.431.246-.368a.436.436,0,0,0,.123-.278.537.537,0,0,0-.154-.216l.062-.093.309.216.308.215-.062.062a1.118,1.118,0,0,0-.277-.062,1.325,1.325,0,0,0-.216.216l-.247.37.615.431a.273.273,0,0,0,.246.061c.063,0,.123-.061.216-.186l.031.032-.276.431-.309.4-.03-.031a.618.618,0,0,0,.091-.246.364.364,0,0,0-.154-.185Z" transform="translate(-2641.253 -2304.867)" fill="#fff"/>
          </g>
          <g id="组_7106" data-name="组 7106" transform="translate(0.086 10.743)">
            <path id="路径_5207" data-name="路径 5207" d="M2588.81,2492.272a.686.686,0,0,1,.277.4,1.148,1.148,0,0,1-.339,1.262,1.144,1.144,0,0,1-.862.216,1.334,1.334,0,0,1-.831-.4,1.206,1.206,0,0,1-.216-.831,2.151,2.151,0,0,1,.155-.492.1.1,0,0,0,0-.123c0-.032-.031-.062-.093-.093v-.062l.77.031v.062a.886.886,0,0,0-.492.216,1.059,1.059,0,0,0-.215.461.736.736,0,0,0,.215.554,1.183,1.183,0,0,0,.739.308,1.169,1.169,0,0,0,.77-.124.66.66,0,0,0,.368-.553,1.719,1.719,0,0,0-.062-.4,1.524,1.524,0,0,0-.246-.4Z" transform="translate(-2586.833 -2492.15)" fill="#fff"/>
          </g>
          <g id="组_7107" data-name="组 7107" transform="translate(0 13.267)">
            <path id="路径_5208" data-name="路径 5208" d="M2586,2573.626l-1.539.122a.707.707,0,0,0-.217.093.28.28,0,0,0-.03.247h-.062l-.061-.462-.031-.495h.062a.644.644,0,0,0,.092.247.276.276,0,0,0,.247.031l1.508-.123a.3.3,0,0,0,.216-.062.4.4,0,0,0,.062-.246h.06l.032.463.03.492h-.062a.492.492,0,0,0-.06-.247.412.412,0,0,0-.246-.06Z" transform="translate(-2584.064 -2572.978)" fill="#fff"/>
          </g>
          <g id="组_7108" data-name="组 7108" transform="translate(0.216 14.826)">
            <path id="路径_5209" data-name="路径 5209" d="M2591.668,2623.287a.792.792,0,0,0-.338.307.706.706,0,0,0-.061.431c.03.091.061.184.122.216a.315.315,0,0,0,.277.062c.093,0,.154-.062.217-.155a1.67,1.67,0,0,0,.154-.371,2.508,2.508,0,0,1,.246-.615.582.582,0,0,1,.83-.155.612.612,0,0,1,.278.464,1.105,1.105,0,0,1,.03.461c0,.031-.03.062,0,.092a.233.233,0,0,0,.123.062v-.031l.032.06-.677.279v-.061a.845.845,0,0,0,.338-.4.436.436,0,0,0,.062-.4.56.56,0,0,0-.185-.279.421.421,0,0,0-.277-.028.472.472,0,0,0-.247.183,3.708,3.708,0,0,0-.185.431,1.036,1.036,0,0,1-.247.493.4.4,0,0,1-.306.214.635.635,0,0,1-.464-.091.654.654,0,0,1-.245-.369,1.66,1.66,0,0,1,0-.4c0-.03,0-.121-.032-.153a.323.323,0,0,0-.091-.031h-.031v-.063l.676-.245Z" transform="translate(-2590.992 -2622.905)" fill="#fff"/>
          </g>
          <g id="组_7109" data-name="组 7109" transform="translate(0.892 16.808)">
            <path id="路径_5210" data-name="路径 5210" d="M2614.335,2686.363a1.094,1.094,0,0,1,.464.216,1.124,1.124,0,0,1,.4,1.262,1.022,1.022,0,0,1-.616.678,1.2,1.2,0,0,1-.924.06,1.14,1.14,0,0,1-.646-.616c-.031-.122-.092-.308-.124-.493a.4.4,0,0,0-.093-.153.307.307,0,0,0-.093-.031h-.03l-.031-.03.678-.371.062.094a1.1,1.1,0,0,0-.339.43.706.706,0,0,0,.585.862,1.024,1.024,0,0,0,.77-.124,1.063,1.063,0,0,0,.615-.522.7.7,0,0,0-.031-.646.882.882,0,0,0-.245-.34,1.177,1.177,0,0,0-.431-.186Z" transform="translate(-2612.642 -2686.363)" fill="#fff"/>
          </g>
          <g id="组_7110" data-name="组 7110" transform="translate(13.507 0.118)">
            <path id="路径_5211" data-name="路径 5211" d="M3018.562,2153.8a.965.965,0,0,1-.462.247.911.911,0,0,1-.491.062,1.189,1.189,0,0,1-.8-.4,1.3,1.3,0,0,1-.185-.862,1.175,1.175,0,0,1,.4-.77,1.412,1.412,0,0,1,.892-.214,1.684,1.684,0,0,1,.493.154.146.146,0,0,0,.154,0c.03,0,.062-.031.092-.062h.061l-.061.738h-.092a.717.717,0,0,0-.216-.491.816.816,0,0,0-.431-.216.868.868,0,0,0-.615.185,1.358,1.358,0,0,0-.277.738,1.12,1.12,0,0,0,.122.739.715.715,0,0,0,.556.37,1.6,1.6,0,0,0,.4-.062,1.711,1.711,0,0,0,.4-.215Z" transform="translate(-3016.615 -2151.857)" fill="#fff"/>
          </g>
          <g id="组_7111" data-name="组 7111" transform="translate(15.794 0.462)">
            <path id="路径_5212" data-name="路径 5212" d="M3089.869,2164.952v-.063c.153.063.245.093.276.063.062,0,.122-.093.155-.217l.522-1.415a.336.336,0,0,0,0-.247c0-.032-.092-.092-.215-.125l.031-.06.615.216,1.109.4-.093.215-.062.247-.093-.031a.617.617,0,0,0-.03-.339,1.025,1.025,0,0,0-.339-.184l-.4-.155c-.03,0-.092-.031-.123-.031,0,.031-.031.062-.031.124l-.277.677.493.186c.123.03.215.062.277.03.063,0,.123-.093.185-.184l.092.032-.122.338-.124.338-.093-.031a.407.407,0,0,0-.03-.277c0-.03-.092-.092-.246-.153l-.461-.155-.277.77c-.031.062-.062.094-.031.124a.46.46,0,0,0,.122.093l.309.092a.834.834,0,0,0,.493.092.585.585,0,0,0,.369-.215l.092.032-.153.215-.185.246-1.139-.4Z" transform="translate(-3089.869 -2162.89)" fill="#fff"/>
          </g>
          <g id="组_7112" data-name="组 7112" transform="translate(20.959 4.151)">
            <path id="路径_5213" data-name="路径 5213" d="M3256.528,2283.326a1.087,1.087,0,0,1-.525-.124,1.048,1.048,0,0,1-.4-.276,1.133,1.133,0,0,1-.309-.833,1.236,1.236,0,0,1,.431-.77,1.294,1.294,0,0,1,.832-.276,1.173,1.173,0,0,1,.8.4,3.14,3.14,0,0,1,.278.462.393.393,0,0,0,.093.122.09.09,0,0,0,.123,0h.031l.031.032-.585.522-.062-.062a.835.835,0,0,0,.185-.522.735.735,0,0,0-.185-.463.764.764,0,0,0-.584-.277,1.393,1.393,0,0,0-.709.339,1.255,1.255,0,0,0-.4.647.878.878,0,0,0,.185.645.8.8,0,0,0,.339.217,1.619,1.619,0,0,0,.462.121Z" transform="translate(-3255.29 -2281.043)" fill="#fff"/>
          </g>
          <g id="组_7113" data-name="组 7113" transform="translate(22.551 6.452)">
            <path id="路径_5214" data-name="路径 5214" d="M3306.406,2356.394a1.209,1.209,0,0,1-.092-.862,1.14,1.14,0,0,1,.616-.645,1.171,1.171,0,0,1,.892-.124,1.254,1.254,0,0,1,.677.586.982.982,0,0,1,.061.831,1.192,1.192,0,0,1-.615.677,1.144,1.144,0,0,1-.893.093,1.037,1.037,0,0,1-.647-.556Zm.093-.061a.578.578,0,0,0,.492.339,1.278,1.278,0,0,0,.77-.186,1.07,1.07,0,0,0,.616-.524.586.586,0,0,0,0-.552.689.689,0,0,0-.493-.372,1.557,1.557,0,0,0-.77.186,1.711,1.711,0,0,0-.616.491.714.714,0,0,0,0,.616Z" transform="translate(-3306.27 -2354.721)" fill="#fff"/>
          </g>
          <g id="组_7114" data-name="组 7114" transform="translate(23.444 9.53)">
            <path id="路径_5215" data-name="路径 5215" d="M3335.209,2453.432c.033.03,0,.091-.029.124,0,.03-.062.059-.092.092s-.093,0-.154-.033c-.031,0-.062-.059-.062-.091s-.032-.091,0-.153c.031-.031.062-.061.092-.061.062,0,.124-.031.154,0a.371.371,0,0,1,.091.123Z" transform="translate(-3334.858 -2453.295)" fill="#fff"/>
          </g>
          <g id="组_7115" data-name="组 7115" transform="translate(23.243 10.497)">
            <path id="路径_5216" data-name="路径 5216" d="M3329,2484.252a.226.226,0,0,1,.153.031.429.429,0,0,1,.093.124.435.435,0,0,1-.062.214c-.031.062-.122.093-.216.124a.413.413,0,0,1-.306-.062.536.536,0,0,1-.246-.215l.03-.031a.7.7,0,0,0,.277.185h.124c.03,0,.03,0,.03-.029.031,0,.031,0,.031-.031a.313.313,0,0,1-.031-.093c0-.031-.03-.093,0-.123s.091-.062.124-.093Z" transform="translate(-3328.417 -2484.252)" fill="#fff"/>
          </g>
          <g id="组_7116" data-name="组 7116" transform="translate(23.889 11.821)">
            <path id="路径_5217" data-name="路径 5217" d="M3349.12,2526.668h.061c0,.153,0,.215.031.246a.4.4,0,0,0,.247.062H3351a.294.294,0,0,0,.216-.062.693.693,0,0,0,.093-.246h.062v.955h-.062a.466.466,0,0,0-.093-.246c0-.031-.092-.062-.216-.062h-1.6a.184.184,0,0,0-.124.031c0,.031-.031.062-.031.124v.214a1.917,1.917,0,0,0,.062.555.6.6,0,0,0,.369.276v.093l-.276-.062-.277-.092v-1.785Z" transform="translate(-3349.12 -2526.668)" fill="#fff"/>
          </g>
          <g id="组_7117" data-name="组 7117" transform="translate(23.55 14.468)">
            <path id="路径_5218" data-name="路径 5218" d="M3338.747,2611.939l1.723.367.062-.183a.871.871,0,0,0,0-.4,1.2,1.2,0,0,0-.308-.184v-.093l.277.063.277.092-.216.891-.186.924-.276-.031-.277-.061.03-.062a.491.491,0,0,0,.339-.092c.092-.03.155-.155.184-.338l.033-.185-1.725-.369c-.092,0-.215-.032-.245,0a.566.566,0,0,0-.124.245h-.062l.124-.492.092-.463.062.032c0,.122-.033.215,0,.245a.777.777,0,0,0,.215.094Z" transform="translate(-3338.255 -2611.445)" fill="#fff"/>
          </g>
          <g id="组_7118" data-name="组 7118" transform="translate(22.783 16.347)">
            <path id="路径_5219" data-name="路径 5219" d="M3314.451,2672.064l1.416.647c.092.029.184.061.216.029.06,0,.122-.091.185-.214l.062.03-.216.431-.185.369a1.426,1.426,0,0,1-.708.8.984.984,0,0,1-.923,0,1.071,1.071,0,0,1-.585-.678,1.665,1.665,0,0,1,.154-1.045l.215-.4.216-.431.029.029c-.029.124-.062.217-.062.247a.541.541,0,0,0,.186.185Zm-.186.277a.309.309,0,0,0-.153-.061c0,.029-.031.061-.062.122l-.062.092a1.051,1.051,0,0,0-.062.74.988.988,0,0,0,.555.555.865.865,0,0,0,.77.06,1.01,1.01,0,0,0,.585-.553l.03-.092a.057.057,0,0,0,0-.092.361.361,0,0,0-.093-.062Z" transform="translate(-3313.684 -2671.603)" fill="#fff"/>
          </g>
          <g id="组_7119" data-name="组 7119" transform="translate(21.857 18.964)">
            <path id="路径_5220" data-name="路径 5220" d="M3284.409,2755.713a.23.23,0,0,1-.155.062.184.184,0,0,1-.122-.031c-.031,0-.062-.061-.093-.123a.236.236,0,0,1,.062-.124l.092-.091c.061,0,.124,0,.153.031a.216.216,0,0,1,.063.122.14.14,0,0,1,0,.153Z" transform="translate(-3284.039 -2755.406)" fill="#fff"/>
          </g>
          <g id="组_7120" data-name="组 7120" transform="translate(10.314 23.612)">
            <path id="路径_5221" data-name="路径 5221" d="M2915.68,2905.4l-.061.247.4.031.031-.247Zm.031-.307-.031.247.37.06.031-.246Zm-.277.216.032-.248-.4-.029-.031.246Zm-.031.308.031-.246-.4-.062-.031.246Zm.77-1.325a.918.918,0,0,1,.246.247c.031.031.031.031,0,.063a1.69,1.69,0,0,0-.216-.032h-.369a.1.1,0,0,0-.062.032v.06l-.03.123.616.093a.406.406,0,0,1,.061-.093c.031,0,.062-.031.093-.062h.03a1.416,1.416,0,0,1,.217.217c0,.029,0,.029-.031.029l-.986-.121-.031.214.307.032h0c.031-.032.063-.061.092-.061s.032-.032.032,0a.725.725,0,0,1,.245.154v.029c0,.031-.03.031-.06.031l-.063.524c0,.031-.061.06-.154.031-.061,0-.123-.031-.092-.062l-.4-.062-.031.245.339.063c.03,0,.061-.03.092-.063s.063-.061.063-.092h.03a1.405,1.405,0,0,1,.217.217c.031.03.031.03,0,.03l-.74-.092-.031.247.585.061c.03,0,.093-.061.153-.124h.032a.417.417,0,0,1,.214.184c0,.034,0,.034-.03.063l-1.94-.246c-.031,0-.123-.029-.154-.029l-.062-.063h.092l.862.124.031-.245-.523-.062a.327.327,0,0,1-.155-.032l-.03-.061a.1.1,0,0,1,.062.029l.646.064.031-.248-.369-.062-.031.063c0,.031-.062.063-.154.063-.03,0-.092-.032-.092-.063l.092-.614c.031-.032.031-.125.031-.185h0a.692.692,0,0,1,.215.121l.4.064.03-.217-.77-.093a1.367,1.367,0,0,0-.154-.03l-.031-.063c.031,0,.031,0,.063.032l.892.092.03-.216h-.092c-.369-.03-.616-.062-.678-.062,0,0-.03-.03,0-.03a7.164,7.164,0,0,0,1.386-.185c.03,0,.03,0,.03.03Z" transform="translate(-2914.357 -2904.262)" fill="#fff"/>
          </g>
          <g id="组_7121" data-name="组 7121" transform="translate(6.897 22.472)">
            <path id="路径_5222" data-name="路径 5222" d="M2806.536,2869.343h-.031v.03l-.215.463.4.185.217-.523Zm-.338.647a.132.132,0,0,1-.215-.061l.338-.649a.152.152,0,0,1,.031-.092v-.062h.032c.122.093.185.154.185.186l.308.123h.06c.031,0,.063-.031.092-.031h0a.539.539,0,0,1,.154.215h0v.031h-.092l-.246.616c-.124.03-.216,0-.247-.093l.063-.124-.4-.184Zm-.153-1.848h-.062l-.247.586.339.121.277-.584Zm.03-.031c.092-.153.124-.277.155-.307a.03.03,0,0,0,.03-.031c.031.031.031.031.031.061.093.062.154.093.154.125v.03h-.093a.442.442,0,0,1-.185.154l.124.062c.061-.031.093-.062.124-.062a.408.408,0,0,1,.184.215c0,.032-.029.032-.061.032a.092.092,0,0,0-.061.031l-.616,1.417c-.031.061-.124.061-.245.03l-.032-.03a.276.276,0,0,0-.122-.246s0-.032.03-.032c.125.093.217.125.247.093l.309-.738-.309-.155-.062.124a1.087,1.087,0,0,1-.707.676c0,.032-.03,0-.03-.03a.972.972,0,0,0,.461-.524l.155-.338h-.031a.228.228,0,0,1-.124-.062l-.03-.062a.092.092,0,0,0,.061.031l.124.062.276-.555c0-.03,0-.122.031-.154h.031a.777.777,0,0,1,.155.154Zm-.03.154a.335.335,0,0,1,.093.308c0,.062-.063.093-.155.062a.092.092,0,0,1-.063-.124c.032,0,.032,0,.032-.03a.147.147,0,0,0,.061-.184.032.032,0,0,1,.032-.032Zm.8.463a.534.534,0,0,1-.554.307V2869a.686.686,0,0,0,.4-.462l.092-.185.031-.122a.031.031,0,0,0,.031-.031c.031.031.092.094.184.186l.154.061c.062-.031.093-.061.124-.061a.54.54,0,0,1,.153.215c0,.031-.03.031-.061.031h-.031l-.154.369c0,.093.032.122.185.122h.032a.488.488,0,0,1,.092.186c-.031.092-.184.061-.4-.032-.122-.028-.214-.121-.185-.213l.247-.556-.154-.061h-.092Zm-1.078.121c.093.155.123.247.093.339a.166.166,0,0,1-.153.092.112.112,0,0,1-.062-.154.091.091,0,0,1,.03-.059.5.5,0,0,0,.093-.186v-.032Z" transform="translate(-2804.936 -2867.773)" fill="#fff"/>
          </g>
          <g id="组_7122" data-name="组 7122" transform="translate(4.52 20.933)">
            <path id="路径_5223" data-name="路径 5223" d="M2730.171,2819.278l-.338.431.462.339.338-.4Zm-.554.246.338-.4-.46-.369-.339.4Zm-.369.923c0,.031-.062.031-.155,0-.06-.062-.091-.124-.06-.153l.553-.74-.462-.339-.092.093c-.154.031-.246-.031-.216-.122l.463-.586.091-.123c.062,0,.093.092.123.245l.493.37.277-.37c.031,0,.031-.03.031-.061.031-.031.031-.062.062-.062a.571.571,0,0,1,.215.278h-.092l-.278.369.431.339a.232.232,0,0,0,.154-.062l.031.031h0a1.332,1.332,0,0,1,.124.309h-.155l-.339.491c-.03.031-.092,0-.184-.061-.031-.032-.092-.092-.062-.124l.062-.093-.462-.338Z" transform="translate(-2728.811 -2818.478)" fill="#fff"/>
          </g>
          <g id="组_7123" data-name="组 7123" transform="translate(13.731 23.598)">
            <path id="路径_5224" data-name="路径 5224" d="M3023.957,2905.867l.893-.092-.217-1.6-.616.092a.3.3,0,0,0-.155.03l-.059-.061h.092l1.477-.186a.913.913,0,0,1,.154-.214s0-.031.03,0a.854.854,0,0,1,.277.155c.033.029.033.029,0,.059l-.862.093a.117.117,0,0,1-.029.093l.184,1.508.553-.061c.032-.061.094-.152.124-.214.03,0,.03-.032.03,0a2.6,2.6,0,0,1,.309.154c.03,0,.03,0,0,.03l-2.062.247a.247.247,0,0,1-.154.029l-.03-.06Z" transform="translate(-3023.804 -2903.822)" fill="#fff"/>
          </g>
          <g id="组_7124" data-name="组 7124" transform="translate(16.685 22.533)">
            <path id="路径_5225" data-name="路径 5225" d="M3119.16,2871.76c0,.124-.092.155-.184.093l-.461-1.109-.062-.122-.062-.124h0a.435.435,0,0,1,.278-.031h.031l.307-.123v-.031c.031-.03.031-.062.062-.093a.029.029,0,0,1,.031-.03.718.718,0,0,1,.215.03v.031c0,.032,0,.032-.03.062h0l.492,1.046a.157.157,0,0,1-.215.124l-.493-1.139-.4.185-.031.031Zm1.016-1.045a3.119,3.119,0,0,1-.338.89.029.029,0,0,1-.03-.029,3.457,3.457,0,0,0,.092-1.141l-.247.093c0,.031-.031.06-.123.093l-.062-.062h.062l.492-.216-.184-.432-.092-.123a.031.031,0,0,1,.031-.031c.123,0,.216-.031.278-.031v.062l-.032.031.125.309.061.122h.031v-.031c.03-.062.03-.154.061-.185h.031c.123.031.216.031.248.062s.029.031.029.061l-.368.155.522,1.138c.063.125,0,.247-.154.339,0,.032-.029.032-.061,0a.254.254,0,0,0-.308-.123h-.031v-.031c.031,0,.031,0,.061-.032.217-.029.278-.121.217-.154Zm-.769.89c.246,0,.431,0,.524.093s.092.155.031.217c-.031.06-.124.06-.184,0a.654.654,0,0,0-.37-.247.822.822,0,0,1-.276.677h-.031v-.031a.973.973,0,0,0,0-1.078l-.247-.586a.765.765,0,0,1,.247-.062v.032l-.031.029v.031l.216.492a.851.851,0,0,1,.122.431Z" transform="translate(-3118.39 -2869.728)" fill="#fff"/>
          </g>
          <g id="组_7125" data-name="组 7125" transform="translate(19.795 21.149)">
            <path id="路径_5226" data-name="路径 5226" d="M3218.328,2826a.713.713,0,0,0,.431.062,1.741,1.741,0,0,0,.031-.4Zm1.478-.4c.03,0,.03,0,.061.031a.432.432,0,0,0,0,.338c0,.031,0,.031-.031.031a1.446,1.446,0,0,1-.923.247,1.411,1.411,0,0,1-.093.217c.032,0,.125-.063.247-.094l.031.031-.031.092h0c.031.03.062.092.092.123l.339-.247v-.153a.109.109,0,0,1,.063-.031c.092,0,.184-.031.246-.031.03,0,.03,0,.03.031l-.03.093a1.091,1.091,0,0,1,.246.522c.031.094-.031.216-.153.339,0,.031-.032.031-.063.031a.3.3,0,0,0-.369-.062.043.043,0,0,1,0-.062c.185-.061.277-.153.277-.215.031-.062-.03-.246-.184-.462l-.4.308a.949.949,0,0,1-.276,1.2.1.1,0,0,1-.062-.03.809.809,0,0,0,.125-.986l-.339.247-.125.092h-.092c.031,0,.092-.061.125-.092l.4-.309a2.059,2.059,0,0,1-.154-.215,2.7,2.7,0,0,1-.492.615c-.03,0-.062-.03-.03-.061a2.373,2.373,0,0,0,.461-.923.963.963,0,0,1-.4-.154,2.6,2.6,0,0,1-.154.832.03.03,0,0,1-.03-.032,1.865,1.865,0,0,0-.123-1.046.1.1,0,0,1,.031-.062,2.166,2.166,0,0,0,.338-.061h0l-.062.154v.06c.032.031.032.031,0,.062l.494-.369.03-.124.032-.03a3.056,3.056,0,0,0,.338-.062c.031.03.031.03.031.062-.031.03-.062.091-.092.122a1.275,1.275,0,0,1-.125.462,1.292,1.292,0,0,0,.8-.431Z" transform="translate(-3217.989 -2825.387)" fill="#fff"/>
          </g>
        </g>
      </g>
      <g id="组_7140" data-name="组 7140" transform="translate(2564.448 2096.092)">
        <g id="组_7128" data-name="组 7128" transform="translate(0 0.138)">
          <path id="路径_5227" data-name="路径 5227" d="M3622.953,2202.945v-5.392h3.78v-2.259a9.215,9.215,0,0,1,1.889.046.764.764,0,0,1-.046.184,2.273,2.273,0,0,0-.138.876v1.152h4.01v5.254h-1.705v-.691h-2.3v3.918h-1.659v-3.918h-2.259v.829Zm1.567-4.1v2.028h2.259v-2.028Zm6.222,2.028v-2.028h-2.3v2.028Z" transform="translate(-3622.953 -2195.294)" fill="#fff"/>
        </g>
        <g id="组_7129" data-name="组 7129" transform="translate(11.062 0)">
          <path id="路径_5228" data-name="路径 5228" d="M3978.178,2192.2h1.2q.045-.507.046-1.06l.046-.277a7.454,7.454,0,0,1,1.613.185.358.358,0,0,1-.046.138,8.351,8.351,0,0,0-.23,1.014h1.475v7.835q.322,1.566-1.89,1.429a2.505,2.505,0,0,0-.507-1.245q1.244.185,1.06-.6v-2.857h-1.521a8.808,8.808,0,0,1-.921,4.886,3.377,3.377,0,0,0-1.291-.738,6.819,6.819,0,0,0,.968-3.733v-.415h-.922v-1.152h.922Zm1.244,3.411h1.521v-2.3h-1.521Zm1.383-.691-.875.323a4.489,4.489,0,0,0-.369-1.245q.322-.138.875-.323A3.919,3.919,0,0,1,3980.8,2194.922Zm-.369,2.167a7.992,7.992,0,0,1,.415,1.475l-.875.323q-.093-.415-.415-1.475Zm1.982-1.89a2.143,2.143,0,0,0,.875-2.028v-1.659h3.642v2.443q-.093.691.553.6h.646a4.534,4.534,0,0,0-.184,1.337h-1.106q-1.337.046-1.245-.922v-2.3h-.968v.83a3.15,3.15,0,0,1-1.337,2.627A4.723,4.723,0,0,0,3982.418,2195.2Zm.6,6.407v-5.116h4.379v5.023h-1.429v-.6H3984.4v.691Zm1.383-3.918v2.212h1.567v-2.212Z" transform="translate(-3977.21 -2190.866)" fill="#fff"/>
        </g>
        <g id="组_7130" data-name="组 7130" transform="translate(22.907 0.23)">
          <path id="路径_5229" data-name="路径 5229" d="M4365.178,2198.246a4.066,4.066,0,0,1,.968,1.337h-.185q-1.2.047-3.365.184v.507h4.655v1.106H4362.6v.369h3.227v3.918H4362.6v.415h3.272v1.06H4362.6v.415h4.148v1.06h-9.725v-1.06h4.1v-.415h-3.134v-1.06h3.134v-.415h-3.088v-3.918h3.088v-.369h-4.563v-1.106h4.563v-.415q-.6,0-2.074.046-.738.047-1.2.046a7.734,7.734,0,0,0-.415-1.2A56.9,56.9,0,0,0,4365.178,2198.246Zm-5.807,4.978h1.751v-.415h-1.751Zm1.751.968h-1.751v.415h1.751Zm1.475-1.383v.415h1.706v-.415Zm0,1.8h1.706v-.415H4362.6Z" transform="translate(-4356.559 -2198.246)" fill="#fff"/>
        </g>
        <g id="组_7131" data-name="组 7131" transform="translate(34.937 1.244)">
          <path id="路径_5230" data-name="路径 5230" d="M4741.813,2237.864h4.287v-5.715h-3.55v-1.429h8.85v1.429h-3.642v5.715h4.425v1.337h-10.371Z" transform="translate(-4741.813 -2230.72)" fill="#fff"/>
        </g>
        <g id="组_7132" data-name="组 7132" transform="translate(46.367 0.311)">
          <path id="路径_5231" data-name="路径 5231" d="M5110.414,2206.516v-3.6h1.245v4.01a10.608,10.608,0,0,1-.092,1.383,17.98,17.98,0,0,1,2.074,1.613,7.189,7.189,0,0,0-1.061,1.106,6.373,6.373,0,0,0-1.613-1.521,11.762,11.762,0,0,1-1.936,1.752,4.939,4.939,0,0,0-1.152-1.06,6.817,6.817,0,0,0,2.12-1.567A3.536,3.536,0,0,0,5110.414,2206.516Zm1.706,1.8v-5.946h-2.074v5.992h-1.336v-7.19h4.7v7.144Zm3.457-3.964h-1.843v-1.291h2.351v-2.212h.692c.613-.03.921,0,.921.092a.23.23,0,0,1-.046.23,1.234,1.234,0,0,0-.092.461v1.429h1.2v1.291H5117.6v5.854q.322,1.336-2.582,1.152a2.83,2.83,0,0,0-.369-1.429q1.752.093,1.429-.369v-2.812a8.237,8.237,0,0,1-1.706,2.812,3.58,3.58,0,0,0-.968-.645l-.276-.138A7.85,7.85,0,0,0,5115.576,2204.349Z" transform="translate(-5107.879 -2200.835)" fill="#fff"/>
        </g>
        <g id="组_7133" data-name="组 7133" transform="translate(58.351 0)">
          <path id="路径_5232" data-name="路径 5232" d="M5492.348,2194.553a12.5,12.5,0,0,0,2.72-3.687q.505.047,1.658.277l.047.046q-.139.231-.369.6h4.24l.046.046a7.059,7.059,0,0,1-2.028,3.181,9.764,9.764,0,0,0,3.919.784q-.785,1.706-.784,1.8a15.777,15.777,0,0,1-4.608-1.66,5.674,5.674,0,0,1-.969.507q1.106.138,1.521.184l.046.046c-.093.215-.185.461-.277.737h3.135v.276a16.1,16.1,0,0,1-.322,3.227q.091.875-2.4.83a4.6,4.6,0,0,0-.553-1.475q1.658,0,1.521-.23a10.442,10.442,0,0,0,.093-1.383h-1.751q-.738,2.627-4.472,3.18a7.9,7.9,0,0,1-.6-.875,2.352,2.352,0,0,0-.276-.415q3-.138,3.687-1.89h-1.751v-1.245h2.073l.093-.875a23.236,23.236,0,0,1-3.134,1.014,2.807,2.807,0,0,1-.415.138q-.369-.645-.783-1.291a12.222,12.222,0,0,0,4.286-1.382,8.325,8.325,0,0,1-.968-1.152,16.569,16.569,0,0,1-1.245,1.383A7.162,7.162,0,0,0,5492.348,2194.553Zm5.807-1.521h-1.981a3.371,3.371,0,0,0,1.061,1.2A4.8,4.8,0,0,0,5498.154,2193.032Z" transform="translate(-5491.656 -2190.866)" fill="#fff"/>
        </g>
        <g id="组_7134" data-name="组 7134" transform="translate(70.104 0.092)">
          <path id="路径_5233" data-name="路径 5233" d="M5868.286,2195.107h3.641a4.6,4.6,0,0,0,.323-1.2.135.135,0,0,0,.046-.092,10.151,10.151,0,0,1,1.567.138q.553.093.323.415a.514.514,0,0,1-.092.138,3.766,3.766,0,0,1-.322.6h4.978v1.291h-5.577q-.275.37-.553.784h4.609v6.13q.322,1.29-2.4,1.291-.369-1.2-.507-1.521,1.521.138,1.291-.369v-.507H5872.3v2.213h-1.475v-4.839l-.23.23a14.485,14.485,0,0,1-1.291,1.152,13.646,13.646,0,0,0-1.106-1.06q.645.508-.138-.138a9,9,0,0,0,3.272-3.365h-3.042Zm4.01,4.056h3.319v-.738H5872.3Zm3.319,1.106H5872.3v.784h3.319Z" transform="translate(-5868.055 -2193.817)" fill="#fff"/>
        </g>
        <g id="组_7135" data-name="组 7135" transform="translate(82.457 0.507)">
          <path id="路径_5234" data-name="路径 5234" d="M6263.642,2217.2V2207.1h3.733a16.216,16.216,0,0,1-.784,3.687,5.081,5.081,0,0,1,.737,2.489q.23,1.8-1.844,2.028a3.09,3.09,0,0,0-.507-1.106v3Zm1.336-8.9v5.485q1.751.046.184-2.9a8.848,8.848,0,0,0,.646-2.581Zm2.075,7.743c0-.03.029-.061.092-.092a1.226,1.226,0,0,0,.506-.968v-7.835h5.255v5.07h-.323a5.871,5.871,0,0,1,1.014.968,2.465,2.465,0,0,1-.6.369q-.784.415-1.29.738a4.954,4.954,0,0,0,2.351,1.567,3.7,3.7,0,0,0-1.2,1.382,5.814,5.814,0,0,1-3.364-5.024h-.415v3.042l.784-.461a4.6,4.6,0,0,0,.506,1.244,13.058,13.058,0,0,0-2.212,1.2.942.942,0,0,1-.277.185Q6267.835,2217.381,6267.053,2216.044Zm2.074-7.7v.738h2.212v-.738Zm0,1.8v.876h2.212v-.876Zm3.134,2.074h-1.383a.352.352,0,0,0,.046.138,1.785,1.785,0,0,0,.23.83A4.97,4.97,0,0,0,6272.261,2212.219Z" transform="translate(-6263.642 -2207.103)" fill="#fff"/>
        </g>
        <g id="组_7136" data-name="组 7136" transform="translate(93.979 0.138)">
          <path id="路径_5235" data-name="路径 5235" d="M6637.037,2197.23H6633.4v-1.152h3.6v-.783h.829c.554,0,.814.016.784.046.03.031.03.138,0,.323a1.263,1.263,0,0,0-.046.276v.138h3.688v1.152h-3.687v.461h3.227v1.06h-3.18v.461h4.332v1.152h-10.278v-1.152h4.379v-.461h-3.272v-1.06h3.272Zm-4.333,7.6q3.272-.276,3.734-.968a2.528,2.528,0,0,0,.6-1.475.362.362,0,0,1,.046-.23,5.2,5.2,0,0,1,1.613.184c.214.031.23.154.046.369-.062.062-.092.108-.092.138a2.833,2.833,0,0,1-.276.737,21.59,21.59,0,0,1,4.24,1.244,6.607,6.607,0,0,0-.875,1.337,15.4,15.4,0,0,0-3.964-1.475,10.275,10.275,0,0,1-4.378,1.429Q6633.212,2205.71,6632.7,2204.835Zm7.236-.922v-1.982h-4.424v2.4h-1.383v-3.549h7.329v3.134Z" transform="translate(-6632.658 -2195.294)" fill="#fff"/>
        </g>
        <g id="组_7137" data-name="组 7137" transform="translate(105.318 0.23)">
          <path id="路径_5236" data-name="路径 5236" d="M6995.771,2203.685a10.729,10.729,0,0,0,2.443-5.439,9.412,9.412,0,0,1,1.8.553q-.461,1.106-1.106,2.4v7.559h-1.383v-5.07a10.278,10.278,0,0,1-.784,1.06A7.408,7.408,0,0,0,6995.771,2203.685Zm4.1-4.194a16.394,16.394,0,0,0,5.023-.738,13.9,13.9,0,0,1,1.153,1.567q-.876.093-2.627.231v2.351h3.134v1.245h-3.134v2.9h2.535v1.152h-6.5v-1.152h2.443v-2.9h-2.627V2202.9h2.627v-2.212q-.277,0-.784.046a3.456,3.456,0,0,1-.921.046A6.561,6.561,0,0,1,6999.874,2199.491Z" transform="translate(-6995.771 -2198.246)" fill="#fff"/>
        </g>
        <g id="组_7138" data-name="组 7138" transform="translate(117.163 0.369)">
          <path id="路径_5237" data-name="路径 5237" d="M7375.121,2207.976q2.719-2.535,3.042-4.748,1.291.37,1.8.507c.123.062.138.138.046.23a55.752,55.752,0,0,1-3.457,5.07A5.249,5.249,0,0,0,7375.121,2207.976Zm1.706,3.226.092-.046q1.521-.46,2.719-4.563a10.281,10.281,0,0,1,1.752.461.151.151,0,0,1,.046.185,38.96,38.96,0,0,0-2.212,3.733,13.847,13.847,0,0,0,1.89-.092c.522-.031.891-.046,1.106-.046a9.971,9.971,0,0,0-1.152-1.383l1.336-.83a29.579,29.579,0,0,1,2.581,3.687l-1.705.738a2.973,2.973,0,0,0-.507-1.06,29.418,29.418,0,0,0-5.07.6c-.215.03-.338.046-.369.046a5.09,5.09,0,0,1-.46-1.244A.724.724,0,0,1,7376.827,2211.2Zm8.065-2.167a10.7,10.7,0,0,1-3.779-5.346,2.7,2.7,0,0,0-.23-.645,4.524,4.524,0,0,1,1.567-.369q.415,2.443,3.688,4.747A8.882,8.882,0,0,0,7384.892,2209.035Z" transform="translate(-7375.121 -2202.675)" fill="#fff"/>
        </g>
        <g id="组_7139" data-name="组 7139" transform="translate(129.792 0.784)">
          <path id="路径_5238" data-name="路径 5238" d="M7786.662,2218.171v1.245h-7.1v-1.245Zm.554-.83h-7.1v-1.383h8.712v8.388q.415,1.937-2.628,1.706a7.919,7.919,0,0,0-.276-1.383q1.428.093,1.291-.645Zm-2.766,7.282v-.691h-2.535v.876h-1.476V2220.2h5.577v4.425Zm0-3.18h-2.535v1.291h2.535Z" transform="translate(-7779.564 -2215.959)" fill="#fff"/>
        </g>
      </g>
      <g id="组_7160" data-name="组 7160" transform="translate(2564.03 2110.523)">
        <g id="组_7141" data-name="组 7141" transform="translate(0 0)">
          <path id="路径_5239" data-name="路径 5239" d="M3613.968,2656.863l1.274.367a2.581,2.581,0,0,1-.974,1.438,2.976,2.976,0,0,1-1.728.47,2.816,2.816,0,0,1-2.963-3,2.857,2.857,0,0,1,3.043-3.109,2.867,2.867,0,0,1,1.938.641,2.285,2.285,0,0,1,.665,1.089l-1.3.282a1.24,1.24,0,0,0-.481-.726,1.47,1.47,0,0,0-.889-.266,1.548,1.548,0,0,0-1.173.471,2.165,2.165,0,0,0-.45,1.529,2.313,2.313,0,0,0,.444,1.6,1.5,1.5,0,0,0,1.153.476,1.394,1.394,0,0,0,.9-.3A1.709,1.709,0,0,0,3613.968,2656.863Z" transform="translate(-3609.576 -2653.024)" fill="#fff"/>
        </g>
        <g id="组_7142" data-name="组 7142" transform="translate(7.595 0)">
          <path id="路径_5240" data-name="路径 5240" d="M3852.8,2657.114l1.278-.113a1.375,1.375,0,0,0,.468.859,1.511,1.511,0,0,0,.952.274,1.571,1.571,0,0,0,.956-.244.707.707,0,0,0,.322-.571.509.509,0,0,0-.136-.357,1.106,1.106,0,0,0-.472-.256q-.231-.073-1.052-.258a3.74,3.74,0,0,1-1.481-.585,1.483,1.483,0,0,1-.6-1.19,1.425,1.425,0,0,1,.281-.845,1.741,1.741,0,0,1,.812-.6,3.548,3.548,0,0,1,1.28-.206,2.936,2.936,0,0,1,1.843.488,1.66,1.66,0,0,1,.65,1.3l-1.313.052a.988.988,0,0,0-.361-.656,1.425,1.425,0,0,0-.832-.2,1.615,1.615,0,0,0-.9.214.421.421,0,0,0-.208.367.441.441,0,0,0,.195.359,3.674,3.674,0,0,0,1.207.4,6.808,6.808,0,0,1,1.417.426,1.774,1.774,0,0,1,.718.6,1.716,1.716,0,0,1-.051,1.894,1.833,1.833,0,0,1-.878.659,4.016,4.016,0,0,1-1.415.216,3.013,3.013,0,0,1-1.895-.518A2.181,2.181,0,0,1,3852.8,2657.114Z" transform="translate(-3852.802 -2653.024)" fill="#fff"/>
        </g>
        <g id="组_7143" data-name="组 7143" transform="translate(15.083 0.101)">
          <path id="路径_5241" data-name="路径 5241" d="M4092.618,2662.165v-5.912h1.313v5.912Z" transform="translate(-4092.618 -2656.253)" fill="#fff"/>
        </g>
        <g id="组_7144" data-name="组 7144" transform="translate(18.552 0)">
          <path id="路径_5242" data-name="路径 5242" d="M4208.111,2656.863l1.272.367a2.577,2.577,0,0,1-.973,1.438,2.979,2.979,0,0,1-1.729.47,2.816,2.816,0,0,1-2.964-3,2.858,2.858,0,0,1,3.044-3.109,2.868,2.868,0,0,1,1.938.641,2.291,2.291,0,0,1,.665,1.089l-1.3.282a1.24,1.24,0,0,0-.481-.726,1.47,1.47,0,0,0-.889-.266,1.548,1.548,0,0,0-1.174.471,2.162,2.162,0,0,0-.45,1.529,2.314,2.314,0,0,0,.443,1.6,1.5,1.5,0,0,0,1.153.476,1.392,1.392,0,0,0,.9-.3A1.714,1.714,0,0,0,4208.111,2656.863Z" transform="translate(-4203.719 -2653.024)" fill="#fff"/>
        </g>
        <g id="组_7145" data-name="组 7145" transform="translate(33.445 0.101)">
          <path id="路径_5243" data-name="路径 5243" d="M4680.666,2662.165v-5.912h4.458v1h-3.145v1.4h2.715v1h-2.715v2.512Z" transform="translate(-4680.666 -2656.253)" fill="#fff"/>
        </g>
        <g id="组_7146" data-name="组 7146" transform="translate(40.082 0.101)">
          <path id="路径_5244" data-name="路径 5244" d="M4893.2,2662.165v-5.912h1.313v5.912Z" transform="translate(-4893.204 -2656.253)" fill="#fff"/>
        </g>
        <g id="组_7147" data-name="组 7147" transform="translate(43.795 0.101)">
          <path id="路径_5245" data-name="路径 5245" d="M5012.118,2662.165v-5.912h1.278l2.661,3.948v-3.948h1.22v5.912h-1.318l-2.622-3.855v3.855Z" transform="translate(-5012.118 -2656.253)" fill="#fff"/>
        </g>
        <g id="组_7148" data-name="组 7148" transform="translate(50.818 0.101)">
          <path id="路径_5246" data-name="路径 5246" d="M5243.544,2662.165h-1.429l-.568-1.343h-2.6l-.536,1.343h-1.394l2.534-5.912h1.389Zm-2.418-2.339-.9-2.194-.878,2.194Z" transform="translate(-5237.018 -2656.253)" fill="#fff"/>
        </g>
        <g id="组_7149" data-name="组 7149" transform="translate(59.189 0.101)">
          <path id="路径_5247" data-name="路径 5247" d="M5505.107,2662.165v-5.912h1.277l2.662,3.948v-3.948h1.22v5.912h-1.317l-2.622-3.855v3.855Z" transform="translate(-5505.107 -2656.253)" fill="#fff"/>
        </g>
        <g id="组_7150" data-name="组 7150" transform="translate(66.642 0)">
          <path id="路径_5248" data-name="路径 5248" d="M5748.179,2656.863l1.273.367a2.574,2.574,0,0,1-.974,1.438,2.973,2.973,0,0,1-1.728.47,2.816,2.816,0,0,1-2.963-3,2.858,2.858,0,0,1,3.043-3.109,2.867,2.867,0,0,1,1.939.641,2.287,2.287,0,0,1,.666,1.089l-1.3.282a1.242,1.242,0,0,0-.481-.726,1.474,1.474,0,0,0-.89-.266,1.547,1.547,0,0,0-1.173.471,2.162,2.162,0,0,0-.45,1.529,2.312,2.312,0,0,0,.443,1.6,1.5,1.5,0,0,0,1.153.476,1.4,1.4,0,0,0,.9-.3A1.714,1.714,0,0,0,5748.179,2656.863Z" transform="translate(-5743.787 -2653.024)" fill="#fff"/>
        </g>
        <g id="组_7151" data-name="组 7151" transform="translate(74.569 0.101)">
          <path id="路径_5249" data-name="路径 5249" d="M5997.669,2662.165v-5.912h4.822v1h-3.509v1.311h3.265v1h-3.265v1.609h3.634v1Z" transform="translate(-5997.669 -2656.253)" fill="#fff"/>
        </g>
        <g id="组_7152" data-name="组 7152" transform="translate(88.672 0)">
          <path id="路径_5250" data-name="路径 5250" d="M6453.712,2656.863l1.273.367a2.584,2.584,0,0,1-.974,1.438,2.977,2.977,0,0,1-1.728.47,2.815,2.815,0,0,1-2.963-3,2.857,2.857,0,0,1,3.042-3.109,2.866,2.866,0,0,1,1.939.641,2.279,2.279,0,0,1,.665,1.089l-1.3.282a1.242,1.242,0,0,0-.481-.726,1.472,1.472,0,0,0-.89-.266,1.549,1.549,0,0,0-1.173.471,2.167,2.167,0,0,0-.45,1.529,2.314,2.314,0,0,0,.443,1.6,1.5,1.5,0,0,0,1.153.476,1.4,1.4,0,0,0,.9-.3A1.714,1.714,0,0,0,6453.712,2656.863Z" transform="translate(-6449.32 -2653.024)" fill="#fff"/>
        </g>
        <g id="组_7153" data-name="组 7153" transform="translate(96.334 0)">
          <path id="路径_5251" data-name="路径 5251" d="M6694.68,2656.117a3.474,3.474,0,0,1,.3-1.517,2.8,2.8,0,0,1,.606-.81,2.54,2.54,0,0,1,.841-.532,3.882,3.882,0,0,1,1.4-.234,3.225,3.225,0,0,1,2.3.811,3.369,3.369,0,0,1,.006,4.495,3.2,3.2,0,0,1-2.289.809,3.233,3.233,0,0,1-2.307-.8A2.894,2.894,0,0,1,6694.68,2656.117Zm1.353-.04a2.082,2.082,0,0,0,.511,1.522,1.875,1.875,0,0,0,2.584,0,2.126,2.126,0,0,0,.5-1.543,2.09,2.09,0,0,0-.49-1.516,1.945,1.945,0,0,0-2.611.006A2.1,2.1,0,0,0,6696.033,2656.077Z" transform="translate(-6694.68 -2653.024)" fill="#fff"/>
        </g>
        <g id="组_7154" data-name="组 7154" transform="translate(104.794 4.88)">
          <path id="路径_5252" data-name="路径 5252" d="M6965.609,2810.436V2809.3h1.246v1.133Z" transform="translate(-6965.609 -2809.303)" fill="#fff"/>
        </g>
        <g id="组_7155" data-name="组 7155" transform="translate(110.501 4.88)">
          <path id="路径_5253" data-name="路径 5253" d="M7148.491,2809.3h1.247v.811a2.583,2.583,0,0,1-.093.776,1.154,1.154,0,0,1-.353.51,1.864,1.864,0,0,1-.659.354l-.244-.468a1.062,1.062,0,0,0,.537-.311.874.874,0,0,0,.169-.54h-.6Z" transform="translate(-7148.389 -2809.303)" fill="#fff"/>
        </g>
        <g id="组_7156" data-name="组 7156" transform="translate(116.337 0.149)">
          <path id="路径_5254" data-name="路径 5254" d="M7335.291,2663.667V2657.8h1.313v4.867h3.265v1Z" transform="translate(-7335.291 -2657.803)" fill="#fff"/>
        </g>
        <g id="组_7157" data-name="组 7157" transform="translate(122.521 0.101)">
          <path id="路径_5255" data-name="路径 5255" d="M7535.269,2662.165v-4.912h-1.929v-1h5.168v1h-1.926v4.912Z" transform="translate(-7533.34 -2656.253)" fill="#fff"/>
        </g>
        <g id="组_7158" data-name="组 7158" transform="translate(129.668 0.101)">
          <path id="路径_5256" data-name="路径 5256" d="M7762.216,2656.253h2.4a5.157,5.157,0,0,1,1.238.113,2.218,2.218,0,0,1,.98.544,2.547,2.547,0,0,1,.621.958,4,4,0,0,1,.213,1.4,3.541,3.541,0,0,1-.2,1.258,2.559,2.559,0,0,1-.7,1.045,2.377,2.377,0,0,1-.922.472,4.357,4.357,0,0,1-1.162.125h-2.472Zm1.313,1v3.916h.98a3.922,3.922,0,0,0,.795-.056,1.252,1.252,0,0,0,.529-.246,1.229,1.229,0,0,0,.345-.571,3.549,3.549,0,0,0,.133-1.083,3.255,3.255,0,0,0-.133-1.053,1.333,1.333,0,0,0-.373-.573,1.3,1.3,0,0,0-.607-.278,6.551,6.551,0,0,0-1.078-.057Z" transform="translate(-7762.216 -2656.253)" fill="#fff"/>
        </g>
        <g id="组_7159" data-name="组 7159" transform="translate(137.36 4.88)">
          <path id="路径_5257" data-name="路径 5257" d="M8008.568,2810.436V2809.3h1.246v1.133Z" transform="translate(-8008.568 -2809.303)" fill="#fff"/>
        </g>
      </g>
    </g>
  </g>
</svg>
